# Blender 3.6.22
# www.blender.org
mtllib fishingpole_g.mtl
o pole
v -1.145381 16.614899 -0.668080
v -1.977451 16.383394 -1.011893
v -3.918834 26.737963 -0.976850
v -3.976045 26.751749 -0.180468
v -1.211981 16.630945 0.258985
v -4.726184 26.561398 0.016377
v -2.085213 16.409359 0.488131
v -5.132583 26.429970 -0.658349
v -2.558300 16.256363 -0.297314
v 1.687575 1.906405 1.162064
v 1.119220 1.722600 0.218449
v 2.736657 2.172614 0.886774
v 2.816669 2.153336 -0.226980
v 1.817039 1.875212 -0.640028
v 1.119220 1.722600 0.218449
v -2.558300 16.256363 -0.297314
v -4.633613 26.539093 -1.272197
v -6.692236 36.860794 -1.285614
v -6.740059 36.872318 -0.619911
v -7.367107 36.713203 -0.455367
v -7.706820 36.603340 -1.019376
v -9.423048 43.385864 -1.260070
v -9.127795 43.481354 -0.769876
v -8.582811 43.619644 -0.912883
v -8.541248 43.609627 -1.491463
v -7.289727 36.694557 -1.532496
v -5.132583 26.429970 -0.658349
v -7.706820 36.603340 -1.019376
v -9.060542 43.465149 -1.706037
v -10.390265 50.358482 -1.697318
v -10.425569 50.366989 -1.205860
v -10.888489 50.249519 -1.084384
v -11.139282 50.168411 -1.500766
v -12.467155 57.054085 -1.715347
v -12.467155 57.054085 -1.715347
v -12.467155 57.054085 -1.715347
v -10.831362 50.235756 -1.879580
v -9.423048 43.385864 -1.260070
v -11.139282 50.168411 -1.500766
v -12.467155 57.054085 -1.715347
v -12.467155 57.054085 -1.715347
v 1.817039 1.875212 -0.640028
v 2.816669 2.153336 -0.226980
v 2.035432 1.966033 0.280056
v 1.119220 1.722600 0.218449
v 1.687575 1.906405 1.162064
v 2.736657 2.172614 0.886774
v -31.479580 2.325250 -1.255884
v -32.287910 2.808650 -0.696965
v -31.302256 2.807494 -0.288692
v -30.743898 2.324387 -0.520205
v -30.801994 1.627294 -1.198612
v -32.000607 1.628700 -1.695095
v -32.519989 2.326471 -1.255884
v -33.199215 1.630106 -1.198612
v -33.255665 2.327334 -0.520205
v -33.695694 1.630689 -0.000000
v -33.255665 2.327334 0.520206
v -33.199215 1.630106 1.198612
v -32.519993 2.326470 1.255884
v -32.000603 1.628700 1.695095
v -31.479580 2.325250 1.255884
v -30.801992 1.627295 1.198612
v -30.743902 2.324388 0.520206
v -30.305510 1.626712 -0.000000
v -30.435444 0.853073 -0.648687
v -31.352823 0.854150 -1.566067
v -31.041119 0.156622 -0.961211
v -32.002331 0.157751 -1.359359
v -32.002895 -0.324700 -0.754388
v -31.248505 -0.325585 0.000000
v -32.003101 -0.496883 -0.000000
v -32.002895 -0.324700 0.754388
v -32.757286 -0.323815 0.000000
v -32.963539 0.158878 -0.961211
v -32.650200 0.855672 -1.566066
v -33.567577 0.856749 -0.648687
v -33.567574 0.856749 0.648688
v -33.361691 0.159345 0.000000
v -32.963543 0.158878 0.961217
v -32.002327 0.157751 1.359360
v -31.041117 0.156624 0.961211
v -30.642969 0.156157 0.000000
v -30.435446 0.853073 0.648688
v -31.352827 0.854150 1.566066
v -32.650196 0.855672 1.566067
v -31.302256 2.807494 -0.288692
v -31.710529 2.807972 0.696965
v -32.696182 2.809129 0.288692
v -33.255665 2.327334 -0.520205
v -33.255665 2.327334 0.520206
v -32.287910 2.808650 -0.696965
v -32.519989 2.326471 -1.255884
v -31.479580 2.325250 -1.255884
v -31.999016 2.980494 0.000000
v -30.743898 2.324387 -0.520205
v -32.000607 1.628700 -1.695095
v -33.199215 1.630106 -1.198612
v -30.801994 1.627294 -1.198612
v -31.352823 0.854150 -1.566067
v -33.199215 1.630106 1.198612
v -33.695694 1.630689 -0.000000
v -32.001057 1.241805 0.579563
v -31.421492 1.241125 0.000000
v -31.995617 5.878308 -0.000000
v -32.580620 1.242485 -0.000000
v -32.001057 1.241806 -0.579563
vn 0.2544 -0.9665 0.0350
vn 0.8194 0.2082 -0.5341
vn -0.2325 -0.0856 -0.9688
vn 0.7352 0.2285 0.6382
vn -0.3688 -0.0528 0.9280
vn -0.8243 -0.1896 0.5334
vn -0.3684 -0.0527 0.9282
vn 0.7353 0.2285 0.6380
vn 0.8195 0.2082 -0.5339
vn -0.2322 -0.0856 -0.9689
vn -0.7401 -0.2099 -0.6389
vn 0.8132 0.2283 -0.5353
vn 0.7289 0.2486 0.6378
vn -0.3763 -0.0285 0.9261
vn -0.8298 -0.1674 0.5324
vn -0.8349 -0.1445 0.5310
vn 0.2179 0.1401 0.9659
vn 0.9531 0.2958 0.0633
vn -0.2402 -0.0613 -0.9688
vn -0.7456 -0.1877 -0.6394
vn -0.7508 -0.1647 -0.6396
vn 0.3540 0.1073 -0.9291
vn 0.3423 0.5963 -0.7261
vn 0.1940 0.8633 -0.4660
vn 0.3365 0.8167 -0.4689
vn 0.7445 0.5456 -0.3847
vn 0.7393 0.2099 -0.6398
vn 0.0005 0.4038 -0.9149
vn -0.3416 0.4482 -0.8261
vn -0.7389 0.2117 -0.6398
vn -0.8256 0.4487 -0.3422
vn -0.9748 0.2119 -0.0702
vn -0.7432 0.5474 0.3847
vn -0.6395 0.2115 0.7391
vn -0.2986 0.6233 0.7227
vn 0.0002 0.2064 0.9785
vn 0.3059 0.6031 0.7367
vn 0.6921 0.2056 0.6919
vn 0.7234 0.6221 0.2994
vn 0.9787 0.2052 -0.0000
vn 0.9037 -0.2074 -0.3744
vn 0.3622 -0.3207 -0.8752
vn 0.5524 -0.6236 -0.5531
vn -0.0007 -0.6034 -0.7974
vn -0.0011 -0.8991 -0.4377
vn 0.4366 -0.8997 -0.0000
vn -0.0012 -1.0000 -0.0000
vn -0.0011 -0.8991 0.4377
vn -0.4387 -0.8986 -0.0000
vn -0.5539 -0.6223 -0.5531
vn -0.3747 -0.2059 -0.9040
vn -0.9042 -0.2053 -0.3744
vn -0.9043 -0.2052 0.3744
vn -0.7981 -0.6025 -0.0000
vn -0.5539 -0.6223 0.5531
vn -0.0007 -0.6034 0.7974
vn 0.5524 -0.6236 0.5531
vn 0.7967 -0.6044 -0.0000
vn 0.9037 -0.2074 0.3744
vn 0.3742 -0.2068 0.9040
vn -0.3747 -0.2059 0.9040
vn 0.4268 0.9041 0.0192
vn 0.1685 0.8989 0.4044
vn -0.4033 0.8996 0.1675
vn -0.5307 0.8184 -0.2202
vn -0.6525 0.7578 -0.0000
vn -0.2449 0.8907 -0.3829
vn -0.2377 0.7821 -0.5760
vn 0.0009 0.7570 -0.6534
vn 0.0012 1.0000 -0.0000
vn 0.6543 0.7562 -0.0000
vn -0.0000 0.0209 -0.9998
vn -0.3773 0.1649 -0.9113
vn 0.3777 0.1640 -0.9113
vn -0.9111 0.1656 0.3775
vn -0.9043 -0.2053 0.3744
vn 0.0001 0.1240 0.9923
vn 0.9924 0.1229 -0.0000
vn -0.9921 0.1252 -0.0000
vn 0.0001 0.1240 -0.9923
vt 0.507212 0.374508
vt 0.196973 0.250000
vt 0.321973 0.250000
vt 0.184428 0.437500
vt 0.084518 0.437500
vt 0.071973 0.250000
vt -0.015392 0.437500
vt -0.053027 0.250000
vt -0.115302 0.437500
vt -0.178027 0.250000
vt -0.053027 0.000000
vt -0.178027 0.000000
vt 0.071973 0.000000
vt 0.196973 0.000000
vt 0.321973 0.000000
vt 0.446973 0.000000
vt 0.446973 0.250000
vt 0.284338 0.437500
vt 0.184428 0.640625
vt 0.084518 0.640625
vt -0.015392 0.640625
vt -0.115302 0.640625
vt -0.115302 0.750000
vt -0.015392 0.750000
vt 0.084518 0.750000
vt 0.184428 0.750000
vt 0.284338 0.640625
vt 0.384248 0.437500
vt 0.384248 0.640625
vt 0.284338 0.750000
vt 0.184428 0.875324
vt 0.084518 0.875324
vt -0.015392 0.875324
vt -0.115302 0.875324
vt -0.065347 1.000000
vt 0.034563 1.000000
vt 0.134473 1.000000
vt 0.284338 0.875324
vt 0.384248 0.750000
vt 0.384248 0.875324
vt 0.334293 1.000000
vt 0.234383 1.000000
vt 0.687500 0.934471
vt 0.687500 0.960907
vt 0.687500 0.896269
vt 0.687500 0.853869
vt 0.687500 0.815668
vt 0.687500 0.789232
vt 0.687500 0.779797
vt 0.687500 0.970342
vt 0.812500 0.996094
vt 0.812500 0.753906
s 0
usemtl pole0_mat.004_f3d
f 42/1/1 43/1/1 44/1/1
f 45/1/1 42/1/1 44/1/1
f 46/1/1 45/1/1 44/1/1
f 47/1/1 46/1/1 44/1/1
f 43/1/1 47/1/1 44/1/1
s 1
f 1/2/2 2/3/3 3/4/2
f 1/2/2 3/4/2 4/5/4
f 5/6/4 1/2/2 4/5/4
f 5/6/4 4/5/4 6/7/5
f 7/8/5 5/6/4 6/7/5
f 7/8/5 6/7/5 8/9/6
f 9/10/6 7/8/5 8/9/6
f 10/11/7 7/8/5 9/10/6
f 11/12/6 10/11/7 9/10/6
f 10/11/7 12/13/8 7/8/5
f 12/13/8 5/6/4 7/8/5
f 12/13/8 13/14/9 5/6/4
f 13/14/9 1/2/2 5/6/4
f 13/14/9 14/15/10 1/2/2
f 14/15/10 2/3/3 1/2/2
f 14/15/10 15/16/11 2/3/3
f 15/16/11 16/17/11 2/3/3
f 2/3/3 16/17/11 17/18/3
f 2/3/3 17/18/3 3/4/2
f 3/4/2 17/18/3 18/19/2
f 3/4/2 18/19/2 19/20/4
f 4/5/4 3/4/2 19/20/4
f 4/5/4 19/20/4 20/21/5
f 6/7/5 4/5/4 20/21/5
f 6/7/5 20/21/5 21/22/6
f 8/9/6 6/7/5 21/22/6
f 21/22/6 20/21/5 22/23/6
f 20/21/5 23/24/5 22/23/6
f 20/21/5 19/20/4 23/24/5
f 19/20/4 24/25/4 23/24/5
f 19/20/4 18/19/2 24/25/4
f 18/19/2 25/26/2 24/25/4
f 18/19/2 26/27/3 25/26/2
f 17/18/3 26/27/3 18/19/2
f 17/18/3 27/28/11 26/27/3
f 16/17/11 27/28/11 17/18/3
f 27/28/11 28/29/11 26/27/3
f 26/27/3 28/29/11 29/30/3
f 26/27/3 29/30/3 25/26/2
f 25/26/2 29/30/3 30/31/12
f 25/26/2 30/31/12 31/32/13
f 24/25/4 25/26/2 31/32/13
f 24/25/4 31/32/13 32/33/14
f 23/24/5 24/25/4 32/33/14
f 23/24/5 32/33/14 33/34/15
f 22/23/6 23/24/5 33/34/15
f 33/34/15 32/33/14 34/35/16
f 32/33/14 31/32/13 35/36/17
f 31/32/13 30/31/12 36/37/18
f 29/30/3 37/38/19 30/31/12
f 29/30/3 38/39/11 37/38/19
f 28/29/11 38/39/11 29/30/3
f 38/39/11 39/40/20 37/38/19
f 37/38/19 39/40/20 40/41/21
f 30/31/12 37/38/19 41/42/22
usemtl uki0_mat.003_f3d
f 48/43/23 49/44/24 50/44/25
f 48/43/23 50/44/25 51/43/26
f 48/43/23 51/43/26 52/45/27
f 48/43/23 52/45/27 53/45/28
f 54/43/29 48/43/23 53/45/28
f 54/43/29 53/45/28 55/45/30
f 56/43/31 54/43/29 55/45/30
f 56/43/31 55/45/30 57/45/32
f 58/43/33 56/43/31 57/45/32
f 58/43/33 57/45/32 59/45/34
f 60/43/35 58/43/33 59/45/34
f 60/43/35 59/45/34 61/45/36
f 62/43/37 60/43/35 61/45/36
f 62/43/37 61/45/36 63/45/38
f 64/43/39 62/43/37 63/45/38
f 64/43/39 63/45/38 65/45/40
f 51/43/26 64/43/39 65/45/40
f 51/43/26 65/45/40 52/45/27
f 52/45/27 65/45/40 66/46/41
f 67/46/42 52/45/27 66/46/41
f 67/46/42 66/46/41 68/47/43
f 69/47/44 67/46/42 68/47/43
f 70/48/45 69/47/44 68/47/43
f 70/48/45 68/47/43 71/48/46
f 72/49/47 70/48/45 71/48/46
f 72/49/47 71/48/46 73/48/48
f 72/49/47 73/48/48 74/48/49
f 72/49/47 74/48/49 70/48/45
f 70/48/45 74/48/49 75/47/50
f 70/48/45 75/47/50 69/47/44
f 75/47/50 76/46/51 69/47/44
f 77/46/52 76/46/51 75/47/50
f 77/46/52 55/45/30 76/46/51
f 57/45/32 55/45/30 77/46/52
f 78/46/53 57/45/32 77/46/52
f 78/46/53 77/46/52 79/47/54
f 80/47/55 78/46/53 79/47/54
f 74/48/49 80/47/55 79/47/54
f 73/48/48 80/47/55 74/48/49
f 73/48/48 81/47/56 80/47/55
f 73/48/48 82/47/57 81/47/56
f 71/48/46 82/47/57 73/48/48
f 71/48/46 83/47/58 82/47/57
f 71/48/46 68/47/43 83/47/58
f 68/47/43 66/46/41 83/47/58
f 66/46/41 84/46/59 83/47/58
f 66/46/41 65/45/40 84/46/59
f 65/45/40 63/45/38 84/46/59
f 84/46/59 63/45/38 85/46/60
f 84/46/59 85/46/60 82/47/57
f 83/47/58 84/46/59 82/47/57
f 82/47/57 85/46/60 81/47/56
f 85/46/60 86/46/61 81/47/56
f 85/46/60 61/45/36 86/46/61
f 63/45/38 61/45/36 85/46/60
f 61/45/36 59/45/34 86/46/61
f 86/46/61 59/45/34 78/46/53
f 86/46/61 78/46/53 80/47/55
f 81/47/56 86/46/61 80/47/55
f 64/43/39 87/44/62 88/44/63
f 64/43/39 88/44/63 62/43/37
f 60/43/35 62/43/37 88/44/63
f 60/43/35 88/44/63 89/44/64
f 60/43/35 89/44/64 58/43/33
f 90/43/65 91/43/66 89/44/64
f 90/43/65 89/44/64 92/44/67
f 90/43/65 92/44/67 93/43/68
f 94/43/69 93/43/68 92/44/67
f 92/44/67 95/50/70 87/44/62
f 92/44/67 89/44/64 95/50/70
f 88/44/63 95/50/70 89/44/64
f 87/44/62 95/50/70 88/44/63
f 64/43/39 96/43/71 87/44/62
f 76/46/51 97/45/72 67/46/42
f 76/46/51 67/46/42 69/47/44
f 98/45/73 97/45/72 76/46/51
f 97/45/72 99/45/74 100/46/74
f 79/47/54 77/46/52 75/47/50
f 75/47/50 74/48/49 79/47/54
f 101/45/75 102/45/75 78/46/76
f 103/51/77 104/51/78 105/52/70
f 106/51/79 103/51/77 105/52/70
f 107/51/80 106/51/79 105/52/70
f 104/51/78 107/51/80 105/52/70
